<svg width="26" height="26" viewBox="0 0 26 26" fill="none" xmlns="http://www.w3.org/2000/svg">
<path d="M24.2581 11.0546L25.5802 12.3428C26.1399 12.8883 26.1399 13.7703 25.5802 14.31L14.0094 25.5909C13.4496 26.1364 12.5444 26.1364 11.9906 25.5909L0.419834 14.3158C-0.139946 13.7703 -0.139946 12.8883 0.419834 12.3486L1.74187 11.0604C2.3076 10.5091 3.23065 10.5207 3.78447 11.0836L10.615 18.0703L10.615 1.3927C10.615 0.620913 11.2522 0 12.0442 0H13.9498C14.7419 0 15.3791 0.620913 15.3791 1.3927L15.3791 18.0703L22.2155 11.0778C22.7694 10.5091 23.6924 10.4975 24.2581 11.0546Z" fill="#246877"/>
</svg>
