<svg width="30" height="40" viewBox="0 0 30 40" fill="none" xmlns="http://www.w3.org/2000/svg">
<path d="M3.51669 25.7777L1.93336 34.8888C1.87874 35.2219 1.88061 35.567 1.93884 35.899C1.99707 36.231 2.11018 36.5414 2.26991 36.8076C2.42965 37.0738 2.63197 37.2891 2.86209 37.4377C3.09222 37.5864 3.34433 37.6646 3.60003 37.6666C3.71917 37.6827 3.83922 37.6827 3.95836 37.6666L10.8334 35.5555L24.0334 18.0222L16.6667 8.22217L3.51669 25.7777Z" fill="#246877"/>
<path d="M28.1833 9.24438L23.2666 2.68883C22.9434 2.26001 22.506 2.01929 22.05 2.01929C21.594 2.01929 21.1566 2.26001 20.8333 2.68883L18.1 6.33327L25.4583 16.1444L28.1916 12.4999C28.3516 12.2856 28.4783 12.0313 28.5645 11.7516C28.6506 11.4719 28.6946 11.1722 28.6938 10.8699C28.693 10.5675 28.6475 10.2683 28.5599 9.98935C28.4723 9.71043 28.3444 9.45728 28.1833 9.24438Z" fill="#246877"/>
</svg>
