<svg width="14" height="14" viewBox="0 0 14 14" fill="none" xmlns="http://www.w3.org/2000/svg">
<path d="M6.8215 0.0122499L7 0C7.31717 1.33751e-05 7.6236 0.114875 7.86263 0.323342C8.10166 0.53181 8.25712 0.819781 8.30025 1.134L8.3125 1.3125V5.68575L12.6875 5.6875C13.0047 5.68751 13.3111 5.80237 13.5501 6.01084C13.7892 6.21931 13.9446 6.50728 13.9878 6.8215L14 7C14 7.31717 13.8851 7.6236 13.6767 7.86263C13.4682 8.10166 13.1802 8.25712 12.866 8.30025L12.6875 8.3125L8.3125 8.31075V12.6875C8.31249 13.0047 8.19763 13.3111 7.98916 13.5501C7.78069 13.7892 7.49272 13.9446 7.1785 13.9878L7 14C6.68283 14 6.3764 13.8851 6.13737 13.6767C5.89834 13.4682 5.74288 13.1802 5.69975 12.866L5.6875 12.6875V8.31075L1.3125 8.3125C0.995334 8.31249 0.688901 8.19763 0.449871 7.98916C0.210841 7.78069 0.0553845 7.49272 0.0122499 7.1785L0 7C1.33751e-05 6.68283 0.114875 6.3764 0.323342 6.13737C0.53181 5.89834 0.819781 5.74288 1.134 5.69975L1.3125 5.6875L5.6875 5.68575V1.3125C5.68751 0.995334 5.80237 0.688901 6.01084 0.449871C6.21931 0.210841 6.50728 0.0553845 6.8215 0.0122499L7 0L6.8215 0.0122499Z" fill="#F8F8F8"/>
</svg>
