<svg width="173" height="57" viewBox="0 0 173 57" fill="none" xmlns="http://www.w3.org/2000/svg">
<path d="M11.949 12.35C12.6824 13.6167 13.499 15.1667 14.399 17C15.299 18.8333 16.2157 20.7667 17.149 22.8C18.0824 24.8 18.999 26.85 19.899 28.95C20.8324 31.0167 21.6824 32.9333 22.449 34.7C23.2157 32.9333 24.049 31.0167 24.949 28.95C25.849 26.85 26.7657 24.8 27.699 22.8C28.6324 20.7667 29.549 18.8333 30.449 17C31.349 15.1667 32.1657 13.6167 32.899 12.35H38.599C38.899 14.8833 39.1824 17.5833 39.449 20.45C39.7157 23.2833 39.949 26.2 40.149 29.2C40.3824 32.1667 40.5824 35.1667 40.749 38.2C40.949 41.2 41.1157 44.1333 41.249 47H35.049C34.9157 42.9667 34.749 38.8167 34.549 34.55C34.3824 30.2833 34.1157 26.15 33.749 22.15C33.3824 22.9167 32.949 23.8333 32.449 24.9C31.949 25.9667 31.4157 27.1333 30.849 28.4C30.2824 29.6333 29.699 30.9167 29.099 32.25C28.5324 33.5833 27.9657 34.8833 27.399 36.15C26.8657 37.3833 26.3657 38.55 25.899 39.65C25.4324 40.7167 25.0324 41.6333 24.699 42.4H19.999C19.6657 41.6333 19.2657 40.7 18.799 39.6C18.3324 38.5 17.8157 37.3333 17.249 36.1C16.7157 34.8333 16.149 33.5333 15.549 32.2C14.9824 30.8667 14.4157 29.5833 13.849 28.35C13.2824 27.1167 12.749 25.9667 12.249 24.9C11.749 23.8 11.3157 22.8833 10.949 22.15C10.5824 26.15 10.299 30.2833 10.099 34.55C9.93236 38.8167 9.78236 42.9667 9.64902 47H3.44902C3.58236 44.1333 3.73236 41.1667 3.89902 38.1C4.09902 35.0333 4.29902 32 4.49902 29C4.73236 25.9667 4.98236 23.0333 5.24902 20.2C5.51569 17.3667 5.79902 14.75 6.09902 12.35H11.949ZM90.9982 47C89.3316 43.5667 87.6149 39.6333 85.8482 35.2C84.1149 30.7333 82.5316 25.95 81.0982 20.85H87.5482C87.9149 22.3167 88.3316 23.9 88.7982 25.6C89.2982 27.2667 89.8149 28.95 90.3482 30.65C90.9149 32.3167 91.4816 33.95 92.0482 35.55C92.6482 37.1167 93.1982 38.5333 93.6982 39.8C94.1982 38.5333 94.7316 37.1167 95.2982 35.55C95.8649 33.95 96.4149 32.3167 96.9482 30.65C97.5149 28.95 98.0482 27.2667 98.5482 25.6C99.0482 23.9 99.4816 22.3167 99.8482 20.85H106.098C104.665 25.95 103.065 30.7333 101.298 35.2C99.5649 39.6333 97.8649 43.5667 96.1982 47H90.9982ZM116.967 47H110.917V20.85H116.967V47ZM117.617 13.2C117.617 14.3333 117.25 15.2333 116.517 15.9C115.783 16.5667 114.917 16.9 113.917 16.9C112.883 16.9 112 16.5667 111.267 15.9C110.533 15.2333 110.167 14.3333 110.167 13.2C110.167 12.0333 110.533 11.1167 111.267 10.45C112 9.78333 112.883 9.45 113.917 9.45C114.917 9.45 115.783 9.78333 116.517 10.45C117.25 11.1167 117.617 12.0333 117.617 13.2ZM123.485 34.05C123.485 31.75 123.818 29.7333 124.485 28C125.185 26.2667 126.102 24.8333 127.235 23.7C128.368 22.5333 129.668 21.6667 131.135 21.1C132.602 20.5 134.102 20.2 135.635 20.2C139.235 20.2 142.035 21.3167 144.035 23.55C146.068 25.7833 147.085 29.1167 147.085 33.55C147.085 33.8833 147.068 34.2667 147.035 34.7C147.035 35.1 147.018 35.4667 146.985 35.8H129.735C129.902 37.9 130.635 39.5333 131.935 40.7C133.268 41.8333 135.185 42.4 137.685 42.4C139.152 42.4 140.485 42.2667 141.685 42C142.918 41.7333 143.885 41.45 144.585 41.15L145.385 46.1C145.052 46.2667 144.585 46.45 143.985 46.65C143.418 46.8167 142.752 46.9667 141.985 47.1C141.252 47.2667 140.452 47.4 139.585 47.5C138.718 47.6 137.835 47.65 136.935 47.65C134.635 47.65 132.635 47.3167 130.935 46.65C129.235 45.95 127.835 45 126.735 43.8C125.635 42.5667 124.818 41.1333 124.285 39.5C123.752 37.8333 123.485 36.0167 123.485 34.05ZM141.035 31.35C141.035 30.5167 140.918 29.7333 140.685 29C140.452 28.2333 140.102 27.5833 139.635 27.05C139.202 26.4833 138.652 26.05 137.985 25.75C137.352 25.4167 136.585 25.25 135.685 25.25C134.752 25.25 133.935 25.4333 133.235 25.8C132.535 26.1333 131.935 26.5833 131.435 27.15C130.968 27.7167 130.602 28.3667 130.335 29.1C130.068 29.8333 129.885 30.5833 129.785 31.35H141.035ZM160.299 42.65C161.899 42.65 163.066 42.4667 163.799 42.1C164.533 41.7 164.899 41.0333 164.899 40.1C164.899 39.2333 164.499 38.5167 163.699 37.95C162.933 37.3833 161.649 36.7667 159.849 36.1C158.749 35.7 157.733 35.2833 156.799 34.85C155.899 34.3833 155.116 33.85 154.449 33.25C153.783 32.65 153.249 31.9333 152.849 31.1C152.483 30.2333 152.299 29.1833 152.299 27.95C152.299 25.55 153.183 23.6667 154.949 22.3C156.716 20.9 159.116 20.2 162.149 20.2C163.683 20.2 165.149 20.35 166.549 20.65C167.949 20.9167 168.999 21.1833 169.699 21.45L168.599 26.35C167.933 26.05 167.083 25.7833 166.049 25.55C165.016 25.2833 163.816 25.15 162.449 25.15C161.216 25.15 160.216 25.3667 159.449 25.8C158.683 26.2 158.299 26.8333 158.299 27.7C158.299 28.1333 158.366 28.5167 158.499 28.85C158.666 29.1833 158.933 29.5 159.299 29.8C159.666 30.0667 160.149 30.35 160.749 30.65C161.349 30.9167 162.083 31.2 162.949 31.5C164.383 32.0333 165.599 32.5667 166.599 33.1C167.599 33.6 168.416 34.1833 169.049 34.85C169.716 35.4833 170.199 36.2167 170.499 37.05C170.799 37.8833 170.949 38.8833 170.949 40.05C170.949 42.55 170.016 44.45 168.149 45.75C166.316 47.0167 163.683 47.65 160.249 47.65C157.949 47.65 156.099 47.45 154.699 47.05C153.299 46.6833 152.316 46.3833 151.749 46.15L152.799 41.1C153.699 41.4667 154.766 41.8167 155.999 42.15C157.266 42.4833 158.699 42.65 160.299 42.65Z" fill="#246877"/>
<path d="M72.0017 43.5H75.5V47H61.5C51.8347 47 44 39.1652 44 29.5C44 19.8348 51.8347 12 61.5 12C71.1652 12 79 19.8348 79 29.5C79.0022 32.217 78.3709 34.8971 77.156 37.3274C75.9412 39.7577 74.1764 41.8712 72.0017 43.5V43.5ZM61.5 26C62.4283 26 63.3185 25.6313 63.9749 24.9749C64.6312 24.3185 65 23.4283 65 22.5C65 21.5717 64.6312 20.6815 63.9749 20.0251C63.3185 19.3687 62.4283 19 61.5 19C60.5717 19 59.6815 19.3687 59.0251 20.0251C58.3687 20.6815 58 21.5717 58 22.5C58 23.4283 58.3687 24.3185 59.0251 24.9749C59.6815 25.6313 60.5717 26 61.5 26ZM54.5 33C55.4283 33 56.3185 32.6313 56.9749 31.9749C57.6312 31.3185 58 30.4283 58 29.5C58 28.5717 57.6312 27.6815 56.9749 27.0251C56.3185 26.3687 55.4283 26 54.5 26C53.5717 26 52.6815 26.3687 52.0251 27.0251C51.3687 27.6815 51 28.5717 51 29.5C51 30.4283 51.3687 31.3185 52.0251 31.9749C52.6815 32.6313 53.5717 33 54.5 33V33ZM68.5 33C69.4283 33 70.3185 32.6313 70.9749 31.9749C71.6312 31.3185 72 30.4283 72 29.5C72 28.5717 71.6312 27.6815 70.9749 27.0251C70.3185 26.3687 69.4283 26 68.5 26C67.5717 26 66.6815 26.3687 66.0251 27.0251C65.3687 27.6815 65 28.5717 65 29.5C65 30.4283 65.3687 31.3185 66.0251 31.9749C66.6815 32.6313 67.5717 33 68.5 33ZM61.5 40C62.4283 40 63.3185 39.6313 63.9749 38.9749C64.6312 38.3185 65 37.4283 65 36.5C65 35.5717 64.6312 34.6815 63.9749 34.0251C63.3185 33.3687 62.4283 33 61.5 33C60.5717 33 59.6815 33.3687 59.0251 34.0251C58.3687 34.6815 58 35.5717 58 36.5C58 37.4283 58.3687 38.3185 59.0251 38.9749C59.6815 39.6313 60.5717 40 61.5 40Z" fill="#246877"/>
</svg>
