<svg width="225" height="75" viewBox="0 0 225 75" fill="none" xmlns="http://www.w3.org/2000/svg">
<path d="M15.5837 16.955C16.5371 18.6017 17.5987 20.6167 18.7687 23C19.9387 25.3833 21.1304 27.8967 22.3437 30.54C23.5571 33.14 24.7487 35.805 25.9187 38.535C27.1321 41.2217 28.2371 43.7133 29.2337 46.01C30.2304 43.7133 31.3137 41.2217 32.4837 38.535C33.6537 35.805 34.8454 33.14 36.0587 30.54C37.2721 27.8967 38.4637 25.3833 39.6337 23C40.8037 20.6167 41.8654 18.6017 42.8187 16.955H50.2287C50.6187 20.2483 50.9871 23.7583 51.3337 27.485C51.6804 31.1683 51.9837 34.96 52.2437 38.86C52.5471 42.7167 52.8071 46.6167 53.0237 50.56C53.2837 54.46 53.5004 58.2733 53.6737 62H45.6137C45.4404 56.7567 45.2237 51.3617 44.9637 45.815C44.7471 40.2683 44.4004 34.895 43.9237 29.695C43.4471 30.6917 42.8837 31.8833 42.2337 33.27C41.5837 34.6567 40.8904 36.1733 40.1537 37.82C39.4171 39.4233 38.6587 41.0917 37.8787 42.825C37.1421 44.5583 36.4054 46.2483 35.6687 47.895C34.9754 49.4983 34.3254 51.015 33.7187 52.445C33.1121 53.8317 32.5921 55.0233 32.1587 56.02H26.0487C25.6154 55.0233 25.0954 53.81 24.4887 52.38C23.8821 50.95 23.2104 49.4333 22.4737 47.83C21.7804 46.1833 21.0437 44.4933 20.2637 42.76C19.5271 41.0267 18.7904 39.3583 18.0537 37.755C17.3171 36.1517 16.6237 34.6567 15.9737 33.27C15.3237 31.84 14.7604 30.6483 14.2837 29.695C13.8071 34.895 13.4387 40.2683 13.1787 45.815C12.9621 51.3617 12.7671 56.7567 12.5937 62H4.53373C4.70707 58.2733 4.90207 54.4167 5.11873 50.43C5.37873 46.4433 5.63873 42.5 5.89873 38.6C6.20207 34.6567 6.52707 30.8433 6.87373 27.16C7.2204 23.4767 7.58873 20.075 7.97873 16.955H15.5837ZM118.348 62C116.181 57.5367 113.949 52.4233 111.653 46.66C109.399 40.8533 107.341 34.635 105.478 28.005H113.863C114.339 29.9117 114.881 31.97 115.488 34.18C116.138 36.3467 116.809 38.535 117.503 40.745C118.239 42.9117 118.976 45.035 119.713 47.115C120.493 49.1517 121.208 50.9933 121.858 52.64C122.508 50.9933 123.201 49.1517 123.938 47.115C124.674 45.035 125.389 42.9117 126.083 40.745C126.819 38.535 127.513 36.3467 128.163 34.18C128.813 31.97 129.376 29.9117 129.853 28.005H137.978C136.114 34.635 134.034 40.8533 131.738 46.66C129.484 52.4233 127.274 57.5367 125.108 62H118.348ZM152.107 62H144.242V28.005H152.107V62ZM152.952 18.06C152.952 19.5333 152.475 20.7033 151.522 21.57C150.568 22.4367 149.442 22.87 148.142 22.87C146.798 22.87 145.65 22.4367 144.697 21.57C143.743 20.7033 143.267 19.5333 143.267 18.06C143.267 16.5433 143.743 15.3517 144.697 14.485C145.65 13.6183 146.798 13.185 148.142 13.185C149.442 13.185 150.568 13.6183 151.522 14.485C152.475 15.3517 152.952 16.5433 152.952 18.06ZM160.58 45.165C160.58 42.175 161.014 39.5533 161.88 37.3C162.79 35.0467 163.982 33.1833 165.455 31.71C166.929 30.1933 168.619 29.0667 170.525 28.33C172.432 27.55 174.382 27.16 176.375 27.16C181.055 27.16 184.695 28.6117 187.295 31.515C189.939 34.4183 191.26 38.7517 191.26 44.515C191.26 44.9483 191.239 45.4467 191.195 46.01C191.195 46.53 191.174 47.0067 191.13 47.44H168.705C168.922 50.17 169.875 52.2933 171.565 53.81C173.299 55.2833 175.79 56.02 179.04 56.02C180.947 56.02 182.68 55.8467 184.24 55.5C185.844 55.1533 187.1 54.785 188.01 54.395L189.05 60.83C188.617 61.0467 188.01 61.285 187.23 61.545C186.494 61.7617 185.627 61.9567 184.63 62.13C183.677 62.3467 182.637 62.52 181.51 62.65C180.384 62.78 179.235 62.845 178.065 62.845C175.075 62.845 172.475 62.4117 170.265 61.545C168.055 60.635 166.235 59.4 164.805 57.84C163.375 56.2367 162.314 54.3733 161.62 52.25C160.927 50.0833 160.58 47.7217 160.58 45.165ZM183.395 41.655C183.395 40.5717 183.244 39.5533 182.94 38.6C182.637 37.6033 182.182 36.7583 181.575 36.065C181.012 35.3283 180.297 34.765 179.43 34.375C178.607 33.9417 177.61 33.725 176.44 33.725C175.227 33.725 174.165 33.9633 173.255 34.44C172.345 34.8733 171.565 35.4583 170.915 36.195C170.309 36.9317 169.832 37.7767 169.485 38.73C169.139 39.6833 168.9 40.6583 168.77 41.655H183.395ZM208.439 56.345C210.519 56.345 212.036 56.1067 212.989 55.63C213.943 55.11 214.419 54.2433 214.419 53.03C214.419 51.9033 213.899 50.9717 212.859 50.235C211.863 49.4983 210.194 48.6967 207.854 47.83C206.424 47.31 205.103 46.7683 203.889 46.205C202.719 45.5983 201.701 44.905 200.834 44.125C199.968 43.345 199.274 42.4133 198.754 41.33C198.278 40.2033 198.039 38.8383 198.039 37.235C198.039 34.115 199.188 31.6667 201.484 29.89C203.781 28.07 206.901 27.16 210.844 27.16C212.838 27.16 214.744 27.355 216.564 27.745C218.384 28.0917 219.749 28.4383 220.659 28.785L219.229 35.155C218.363 34.765 217.258 34.4183 215.914 34.115C214.571 33.7683 213.011 33.595 211.234 33.595C209.631 33.595 208.331 33.8767 207.334 34.44C206.338 34.96 205.839 35.7833 205.839 36.91C205.839 37.4733 205.926 37.9717 206.099 38.405C206.316 38.8383 206.663 39.25 207.139 39.64C207.616 39.9867 208.244 40.355 209.024 40.745C209.804 41.0917 210.758 41.46 211.884 41.85C213.748 42.5433 215.329 43.2367 216.629 43.93C217.929 44.58 218.991 45.3383 219.814 46.205C220.681 47.0283 221.309 47.9817 221.699 49.065C222.089 50.1483 222.284 51.4483 222.284 52.965C222.284 56.215 221.071 58.685 218.644 60.375C216.261 62.0217 212.838 62.845 208.374 62.845C205.384 62.845 202.979 62.585 201.159 62.065C199.339 61.5883 198.061 61.1983 197.324 60.895L198.689 54.33C199.859 54.8067 201.246 55.2617 202.849 55.695C204.496 56.1283 206.359 56.345 208.439 56.345Z" fill="#246877"/>
<path d="M92.002 58H96V62H80C68.954 62 60 53.046 60 42C60 30.954 68.954 22 80 22C91.046 22 100 30.954 100 42C100.003 45.1051 99.281 48.1681 97.8926 50.9456C96.5042 53.723 94.4873 56.1385 92.002 58ZM80 38C81.0609 38 82.0783 37.5786 82.8284 36.8284C83.5786 36.0783 84 35.0609 84 34C84 32.9391 83.5786 31.9217 82.8284 31.1716C82.0783 30.4214 81.0609 30 80 30C78.9391 30 77.9217 30.4214 77.1716 31.1716C76.4214 31.9217 76 32.9391 76 34C76 35.0609 76.4214 36.0783 77.1716 36.8284C77.9217 37.5786 78.9391 38 80 38ZM72 46C73.0609 46 74.0783 45.5786 74.8284 44.8284C75.5786 44.0783 76 43.0609 76 42C76 40.9391 75.5786 39.9217 74.8284 39.1716C74.0783 38.4214 73.0609 38 72 38C70.9391 38 69.9217 38.4214 69.1716 39.1716C68.4214 39.9217 68 40.9391 68 42C68 43.0609 68.4214 44.0783 69.1716 44.8284C69.9217 45.5786 70.9391 46 72 46ZM88 46C89.0609 46 90.0783 45.5786 90.8284 44.8284C91.5786 44.0783 92 43.0609 92 42C92 40.9391 91.5786 39.9217 90.8284 39.1716C90.0783 38.4214 89.0609 38 88 38C86.9391 38 85.9217 38.4214 85.1716 39.1716C84.4214 39.9217 84 40.9391 84 42C84 43.0609 84.4214 44.0783 85.1716 44.8284C85.9217 45.5786 86.9391 46 88 46ZM80 54C81.0609 54 82.0783 53.5786 82.8284 52.8284C83.5786 52.0783 84 51.0609 84 50C84 48.9391 83.5786 47.9217 82.8284 47.1716C82.0783 46.4214 81.0609 46 80 46C78.9391 46 77.9217 46.4214 77.1716 47.1716C76.4214 47.9217 76 48.9391 76 50C76 51.0609 76.4214 52.0783 77.1716 52.8284C77.9217 53.5786 78.9391 54 80 54Z" fill="#246877"/>
</svg>
