<svg width="40" height="40" viewBox="0 0 40 40" fill="none" xmlns="http://www.w3.org/2000/svg">
<circle cx="20" cy="20" r="20" fill="#E9E9E9"/>
<path d="M21.4156 26.2552C21.4093 26.2573 20.8333 26.449 20.3333 26.449C20.0572 26.449 19.9458 26.3917 19.9104 26.3667C19.7354 26.2448 19.4104 26.0167 19.9666 24.9084L21.0083 22.8313C21.626 21.598 21.7176 20.4052 21.2635 19.4719C20.8926 18.7084 20.1812 18.1844 19.2635 17.9969C18.9351 17.9297 18.6008 17.8959 18.2656 17.8959C16.3395 17.8959 15.0426 19.0209 14.9885 19.0688C14.898 19.1485 14.8381 19.2571 14.8187 19.3761C14.7994 19.4951 14.822 19.6171 14.8826 19.7213C14.9432 19.8255 15.038 19.9055 15.151 19.9476C15.2639 19.9897 15.388 19.9913 15.502 19.9521C15.5072 19.95 16.0843 19.7573 16.5843 19.7573C16.8583 19.7573 16.9687 19.8146 17.0031 19.8386C17.1791 19.9615 17.5051 20.1927 16.9499 21.299L15.9083 23.3771C15.2895 24.6115 15.1989 25.8042 15.6531 26.7365C16.0239 27.5 16.7343 28.024 17.6541 28.2115C17.9812 28.2771 18.3166 28.3125 18.6479 28.3125C20.5749 28.3125 21.8729 27.1875 21.927 27.1396C22.0175 27.0601 22.0777 26.9517 22.0972 26.8328C22.1167 26.7139 22.0944 26.5919 22.0341 26.4876C21.9738 26.3833 21.8792 26.3031 21.7664 26.2608C21.6536 26.2184 21.5296 26.2165 21.4156 26.2552Z" fill="#246877"/>
<path d="M20.5417 16.8552C21.9799 16.8552 23.1458 15.6893 23.1458 14.251C23.1458 12.8128 21.9799 11.6469 20.5417 11.6469C19.1034 11.6469 17.9375 12.8128 17.9375 14.251C17.9375 15.6893 19.1034 16.8552 20.5417 16.8552Z" fill="#246877"/>
</svg>
