<svg width="30" height="30" viewBox="0 0 30 30" fill="none" xmlns="http://www.w3.org/2000/svg">
<path d="M24 13.3333C24 11.735 22.98 10.3983 21.6285 10.0767C22.1685 9.075 22.5 7.91667 22.5 6.66667C22.5 2.99 19.809 0 16.5 0C14.226 0 12.267 1.42833 11.25 3.50667C10.233 1.42833 8.274 0 6 0C2.691 0 0 2.99 0 6.66667C0 8.17 0.468 9.54333 1.2255 10.66C0.846795 10.9675 0.538534 11.3698 0.325639 11.8342C0.112745 12.2986 0.00119194 12.8121 0 13.3333V26.6667C0 28.505 1.3455 30 3 30H21C22.6545 30 24 28.505 24 26.6667V22.2717L30 25.605V13.9383L24 17.2717V13.3333ZM16.5 3.33333C18.1545 3.33333 19.5 4.82833 19.5 6.66667C19.5 8.505 18.1545 10 16.5 10C14.8455 10 13.5 8.505 13.5 6.66667C13.5 4.82833 14.8455 3.33333 16.5 3.33333ZM6 3.33333C7.6545 3.33333 9 4.82833 9 6.66667C9 8.505 7.6545 10 6 10C4.3455 10 3 8.505 3 6.66667C3 4.82833 4.3455 3.33333 6 3.33333Z" fill="#F8F8F8"/>
</svg>
