<svg width="70" height="70" viewBox="0 0 70 70" fill="none" xmlns="http://www.w3.org/2000/svg">
<path d="M37.4878 56.6343C37.4878 57.918 37.6241 59.164 37.7945 60.4099H6.81597C5.00826 60.4099 3.27459 59.6143 1.99635 58.1982C0.718109 56.7821 0 54.8614 0 52.8587V7.55124C0 5.54853 0.718109 3.62784 1.99635 2.21171C3.27459 0.795574 5.00826 0 6.81597 0H10.224L17.0399 15.1025H27.2639L20.4479 0H27.2639L34.0798 15.1025H44.3038L37.4878 0H44.3038L51.1198 15.1025H61.3437L54.5277 0H68.1597V37.0388C65.1607 35.1133 61.6845 33.9806 57.9357 33.9806C46.6553 33.9806 37.4878 44.137 37.4878 56.6343ZM70 48.63L65.1607 43.3064L57.9357 51.3107L50.7108 43.3064L45.9055 48.63L53.1305 56.6343L45.9055 64.6386L50.7108 70L57.9357 61.9579L65.1607 70L70 64.6386L62.741 56.6343L70 48.63Z" fill="#246877" fill-opacity="0.6"/>
</svg>
