<svg width="72" height="72" viewBox="0 0 72 72" fill="none" xmlns="http://www.w3.org/2000/svg">
<path d="M35.9929 10.736L27.7899 27.37L9.43994 30.044L22.7249 42.984L19.5969 61.264L36.0089 52.628L52.4279 61.251L49.2859 42.974L62.5619 30.024L44.2079 27.364L35.9939 10.736H35.9929Z" fill="#246877"/>
<path d="M35.9929 10.736L27.7899 27.37L9.43994 30.044L22.7249 42.984L19.5969 61.264L36.0089 52.628L52.4279 61.251L49.2859 42.974L62.5619 30.024L44.2079 27.364L35.9939 10.736H35.9929Z" fill="#F5FA1E"/>
<path d="M35.9929 10.736L27.7899 27.37L9.43994 30.044L22.7249 42.984L19.5969 61.264L36.0089 52.628L52.4279 61.251L49.2859 42.974L62.5619 30.024L44.2079 27.364L35.9939 10.736H35.9929Z" stroke="#246877" stroke-width="2" stroke-miterlimit="10" stroke-linecap="round" stroke-linejoin="round"/>
</svg>
