<svg width="4" height="19" viewBox="0 0 4 19" fill="none" xmlns="http://www.w3.org/2000/svg">
<path d="M4 1.99936C4.00008 2.262 3.94844 2.52209 3.848 2.76477C3.74757 3.00746 3.60032 3.22798 3.41467 3.41376C3.22901 3.59954 3.00858 3.74693 2.76596 3.84751C2.52334 3.9481 2.26329 3.99992 2.00064 4C1.738 4.00008 1.47791 3.94844 1.23523 3.848C0.992543 3.74757 0.772017 3.60033 0.58624 3.41467C0.400464 3.22901 0.253075 3.00858 0.152488 2.76596C0.0519002 2.52334 8.44678e-05 2.26329 1.03327e-07 2.00064C-0.000170278 1.47021 0.21038 0.961434 0.585332 0.586241C0.960285 0.211048 1.46892 0.000170496 1.99936 1.0334e-07C2.52979 -0.00017029 3.03857 0.21038 3.41376 0.585332C3.78895 0.960284 3.99983 1.46892 4 1.99936V1.99936Z" fill="#246877"/>
<path d="M2 11.0588C3.10457 11.0588 4 10.1634 4 9.05884C4 7.95427 3.10457 7.05884 2 7.05884C0.89543 7.05884 0 7.95427 0 9.05884C0 10.1634 0.89543 11.0588 2 11.0588Z" fill="#246877"/>
<path d="M2 18.1177C3.10457 18.1177 4 17.2222 4 16.1177C4 15.0131 3.10457 14.1177 2 14.1177C0.89543 14.1177 0 15.0131 0 16.1177C0 17.2222 0.89543 18.1177 2 18.1177Z" fill="#246877"/>
</svg>
