<svg width="48" height="55" viewBox="0 0 48 55" fill="none" xmlns="http://www.w3.org/2000/svg">
<path d="M3.19922 31.1877L0.771094 28.4994C-0.257031 27.3611 -0.257031 25.5205 0.771094 24.3943L22.0227 0.853711C23.0508 -0.28457 24.7133 -0.28457 25.7305 0.853711L46.982 24.3822C48.0102 25.5205 48.0102 27.3611 46.982 28.4873L44.5539 31.1756C43.5148 32.326 41.8195 32.3018 40.8023 31.1271L28.257 16.5475V51.3498C28.257 52.9604 27.0867 54.2561 25.632 54.2561H22.132C20.6773 54.2561 19.507 52.9604 19.507 51.3498V16.5475L6.95078 31.1393C5.93359 32.326 4.23828 32.3502 3.19922 31.1877V31.1877Z" fill="#246877"/>
</svg>
