<svg width="497" height="165" viewBox="0 0 497 165" fill="none" xmlns="http://www.w3.org/2000/svg">
<path d="M33.7932 36.208C35.9052 39.856 38.2572 44.32 40.8492 49.6C43.4412 54.88 46.0812 60.448 48.7692 66.304C51.4572 72.064 54.0972 77.968 56.6892 84.016C59.3772 89.968 61.8252 95.488 64.0332 100.576C66.2412 95.488 68.6412 89.968 71.2332 84.016C73.8252 77.968 76.4652 72.064 79.1532 66.304C81.8412 60.448 84.4812 54.88 87.0732 49.6C89.6652 44.32 92.0172 39.856 94.1292 36.208H110.545C111.409 43.504 112.225 51.28 112.993 59.536C113.761 67.696 114.433 76.096 115.009 84.736C115.681 93.28 116.257 101.92 116.737 110.656C117.313 119.296 117.793 127.744 118.177 136H100.321C99.9372 124.384 99.4572 112.432 98.8812 100.144C98.4012 87.856 97.6332 75.952 96.5772 64.432C95.5212 66.64 94.2732 69.28 92.8332 72.352C91.3932 75.424 89.8572 78.784 88.2252 82.432C86.5932 85.984 84.9132 89.68 83.1852 93.52C81.5532 97.36 79.9212 101.104 78.2892 104.752C76.7532 108.304 75.3132 111.664 73.9692 114.832C72.6252 117.904 71.4732 120.544 70.5132 122.752H56.9772C56.0172 120.544 54.8652 117.856 53.5212 114.688C52.1772 111.52 50.6892 108.16 49.0572 104.608C47.5212 100.96 45.8892 97.216 44.1612 93.376C42.5292 89.536 40.8972 85.84 39.2652 82.288C37.6332 78.736 36.0972 75.424 34.6572 72.352C33.2172 69.184 31.9692 66.544 30.9132 64.432C29.8572 75.952 29.0412 87.856 28.4652 100.144C27.9852 112.432 27.5532 124.384 27.1692 136H9.31318C9.69718 127.744 10.1292 119.2 10.6092 110.368C11.1852 101.536 11.7612 92.8 12.3372 84.16C13.0092 75.424 13.7292 66.976 14.4972 58.816C15.2652 50.656 16.0812 43.12 16.9452 36.208H33.7932ZM261.455 136C256.655 126.112 251.711 114.784 246.623 102.016C241.631 89.152 237.071 75.376 232.943 60.688H251.519C252.575 64.912 253.775 69.472 255.119 74.368C256.559 79.168 258.047 84.016 259.583 88.912C261.215 93.712 262.847 98.416 264.479 103.024C266.207 107.536 267.791 111.616 269.231 115.264C270.671 111.616 272.207 107.536 273.839 103.024C275.471 98.416 277.055 93.712 278.591 88.912C280.223 84.016 281.759 79.168 283.199 74.368C284.639 69.472 285.887 64.912 286.943 60.688H304.943C300.815 75.376 296.207 89.152 291.119 102.016C286.127 114.784 281.231 126.112 276.431 136H261.455ZM336.244 136H318.82V60.688H336.244V136ZM338.116 38.656C338.116 41.92 337.06 44.512 334.948 46.432C332.836 48.352 330.34 49.312 327.46 49.312C324.484 49.312 321.94 48.352 319.828 46.432C317.716 44.512 316.66 41.92 316.66 38.656C316.66 35.296 317.716 32.656 319.828 30.736C321.94 28.816 324.484 27.856 327.46 27.856C330.34 27.856 332.836 28.816 334.948 30.736C337.06 32.656 338.116 35.296 338.116 38.656ZM355.017 98.704C355.017 92.08 355.977 86.272 357.897 81.28C359.913 76.288 362.553 72.16 365.817 68.896C369.081 65.536 372.825 63.04 377.049 61.408C381.273 59.68 385.593 58.816 390.009 58.816C400.377 58.816 408.441 62.032 414.201 68.464C420.057 74.896 422.985 84.496 422.985 97.264C422.985 98.224 422.937 99.328 422.841 100.576C422.841 101.728 422.793 102.784 422.697 103.744H373.017C373.497 109.792 375.609 114.496 379.353 117.856C383.193 121.12 388.713 122.752 395.913 122.752C400.137 122.752 403.977 122.368 407.433 121.6C410.985 120.832 413.769 120.016 415.785 119.152L418.089 133.408C417.129 133.888 415.785 134.416 414.057 134.992C412.425 135.472 410.505 135.904 408.297 136.288C406.185 136.768 403.881 137.152 401.385 137.44C398.889 137.728 396.345 137.872 393.753 137.872C387.129 137.872 381.369 136.912 376.473 134.992C371.577 132.976 367.545 130.24 364.377 126.784C361.209 123.232 358.857 119.104 357.321 114.4C355.785 109.6 355.017 104.368 355.017 98.704ZM405.561 90.928C405.561 88.528 405.225 86.272 404.553 84.16C403.881 81.952 402.873 80.08 401.529 78.544C400.281 76.912 398.697 75.664 396.777 74.8C394.953 73.84 392.745 73.36 390.153 73.36C387.465 73.36 385.113 73.888 383.097 74.944C381.081 75.904 379.353 77.2 377.913 78.832C376.569 80.464 375.513 82.336 374.745 84.448C373.977 86.56 373.449 88.72 373.161 90.928H405.561ZM461.042 123.472C465.65 123.472 469.01 122.944 471.122 121.888C473.234 120.736 474.29 118.816 474.29 116.128C474.29 113.632 473.138 111.568 470.834 109.936C468.626 108.304 464.93 106.528 459.746 104.608C456.578 103.456 453.65 102.256 450.962 101.008C448.37 99.664 446.114 98.128 444.194 96.4C442.274 94.672 440.738 92.608 439.586 90.208C438.53 87.712 438.002 84.688 438.002 81.136C438.002 74.224 440.546 68.8 445.634 64.864C450.722 60.832 457.634 58.816 466.37 58.816C470.786 58.816 475.01 59.248 479.042 60.112C483.074 60.88 486.098 61.648 488.114 62.416L484.946 76.528C483.026 75.664 480.578 74.896 477.602 74.224C474.626 73.456 471.17 73.072 467.234 73.072C463.682 73.072 460.802 73.696 458.594 74.944C456.386 76.096 455.282 77.92 455.282 80.416C455.282 81.664 455.474 82.768 455.858 83.728C456.338 84.688 457.106 85.6 458.162 86.464C459.218 87.232 460.61 88.048 462.338 88.912C464.066 89.68 466.178 90.496 468.674 91.36C472.802 92.896 476.306 94.432 479.186 95.968C482.066 97.408 484.418 99.088 486.242 101.008C488.162 102.832 489.554 104.944 490.418 107.344C491.282 109.744 491.714 112.624 491.714 115.984C491.714 123.184 489.026 128.656 483.65 132.4C478.37 136.048 470.786 137.872 460.898 137.872C454.274 137.872 448.946 137.296 444.914 136.144C440.882 135.088 438.05 134.224 436.418 133.552L439.442 119.008C442.034 120.064 445.106 121.072 448.658 122.032C452.306 122.992 456.434 123.472 461.042 123.472Z" fill="#F8F8F8"/>
<path d="M206.005 126H216V136H176C148.385 136 126 113.615 126 86C126 58.385 148.385 36 176 36C203.615 36 226 58.385 226 86C226.006 93.7629 224.202 101.42 220.732 108.364C217.261 115.308 212.218 121.346 206.005 126ZM176 76C178.652 76 181.196 74.9464 183.071 73.0711C184.946 71.1957 186 68.6522 186 66C186 63.3478 184.946 60.8043 183.071 58.9289C181.196 57.0536 178.652 56 176 56C173.348 56 170.804 57.0536 168.929 58.9289C167.054 60.8043 166 63.3478 166 66C166 68.6522 167.054 71.1957 168.929 73.0711C170.804 74.9464 173.348 76 176 76ZM156 96C158.652 96 161.196 94.9464 163.071 93.0711C164.946 91.1957 166 88.6522 166 86C166 83.3478 164.946 80.8043 163.071 78.9289C161.196 77.0536 158.652 76 156 76C153.348 76 150.804 77.0536 148.929 78.9289C147.054 80.8043 146 83.3478 146 86C146 88.6522 147.054 91.1957 148.929 93.0711C150.804 94.9464 153.348 96 156 96ZM196 96C198.652 96 201.196 94.9464 203.071 93.0711C204.946 91.1957 206 88.6522 206 86C206 83.3478 204.946 80.8043 203.071 78.9289C201.196 77.0536 198.652 76 196 76C193.348 76 190.804 77.0536 188.929 78.9289C187.054 80.8043 186 83.3478 186 86C186 88.6522 187.054 91.1957 188.929 93.0711C190.804 94.9464 193.348 96 196 96ZM176 116C178.652 116 181.196 114.946 183.071 113.071C184.946 111.196 186 108.652 186 106C186 103.348 184.946 100.804 183.071 98.9289C181.196 97.0536 178.652 96 176 96C173.348 96 170.804 97.0536 168.929 98.9289C167.054 100.804 166 103.348 166 106C166 108.652 167.054 111.196 168.929 113.071C170.804 114.946 173.348 116 176 116Z" fill="#F8F8F8"/>
</svg>
