<svg width="40" height="40" viewBox="0 0 40 40" fill="none" xmlns="http://www.w3.org/2000/svg">
<path d="M38.9453 36.2549L26.2647 23.5742C28.2324 21.0303 29.2969 17.9199 29.2969 14.6484C29.2969 10.7324 27.7686 7.06055 25.0049 4.29199C22.2412 1.52344 18.5596 0 14.6484 0C10.7373 0 7.05566 1.52832 4.29199 4.29199C1.52344 7.05566 0 10.7324 0 14.6484C0 18.5596 1.52832 22.2412 4.29199 25.0049C7.05566 27.7734 10.7324 29.2969 14.6484 29.2969C17.9199 29.2969 21.0254 28.2324 23.5693 26.2695L36.25 38.9453C36.2872 38.9825 36.3313 39.012 36.3799 39.0322C36.4285 39.0523 36.4806 39.0627 36.5332 39.0627C36.5858 39.0627 36.6379 39.0523 36.6865 39.0322C36.7351 39.012 36.7792 38.9825 36.8164 38.9453L38.9453 36.8213C38.9825 36.7841 39.012 36.74 39.0322 36.6914C39.0523 36.6428 39.0627 36.5907 39.0627 36.5381C39.0627 36.4855 39.0523 36.4334 39.0322 36.3848C39.012 36.3362 38.9825 36.2921 38.9453 36.2549ZM22.3828 22.3828C20.3125 24.4482 17.5684 25.5859 14.6484 25.5859C11.7285 25.5859 8.98438 24.4482 6.91406 22.3828C4.84863 20.3125 3.71094 17.5684 3.71094 14.6484C3.71094 11.7285 4.84863 8.97949 6.91406 6.91406C8.98438 4.84863 11.7285 3.71094 14.6484 3.71094C17.5684 3.71094 20.3174 4.84375 22.3828 6.91406C24.4482 8.98438 25.5859 11.7285 25.5859 14.6484C25.5859 17.5684 24.4482 20.3174 22.3828 22.3828Z" fill="#246877"/>
</svg>
