<svg width="40" height="40" viewBox="0 0 40 40" fill="none" xmlns="http://www.w3.org/2000/svg">
<path d="M7.1615 38.2668C6.96651 39.4507 8.06149 40.376 9.02647 39.848L20.0013 33.8325L30.9736 39.848C31.9386 40.376 33.0335 39.4507 32.8385 38.2695L30.7636 25.6571L39.5684 16.7084C40.3934 15.8712 39.9684 14.3406 38.8634 14.1753L26.6186 12.3194L21.1587 0.781657C21.0547 0.547778 20.8906 0.350178 20.6855 0.211814C20.4804 0.073449 20.2427 0 20 0C19.7573 0 19.5196 0.073449 19.3145 0.211814C19.1094 0.350178 18.9453 0.547778 18.8413 0.781657L13.3814 12.3221L1.13661 14.178C0.0341329 14.3433 -0.393359 15.8738 0.429126 16.7111L9.23647 25.6598L7.1615 38.2721V38.2668ZM19.4238 30.8887L10.2089 35.939L11.9439 25.3878C11.9846 25.1449 11.9687 24.8951 11.8976 24.6603C11.8266 24.4255 11.7025 24.2129 11.5364 24.0412L4.27156 16.6551L14.4014 15.1192C14.6111 15.0854 14.8101 14.9979 14.9812 14.8642C15.1523 14.7304 15.2905 14.5545 15.3839 14.3513L19.9963 4.59737L24.6137 14.3513C24.7071 14.5545 24.8452 14.7304 25.0163 14.8642C25.1875 14.9979 25.3864 15.0854 25.5962 15.1192L35.726 16.6524L28.4611 24.0386C28.2946 24.2105 28.1704 24.4236 28.0993 24.6589C28.0282 24.8942 28.0125 25.1445 28.0536 25.3878L29.7886 35.939L20.5738 30.8887C20.3956 30.7907 20.198 30.7396 19.9975 30.7396C19.797 30.7396 19.5995 30.7907 19.4213 30.8887H19.4238Z" fill="#246877"/>
</svg>
